{
	"asset":{
		"generator":"Khronos glTF Blender I/O v4.1.63",
		"version":"2.0"
	},
	"scene":0,
	"scenes":[
		{
			"name":"Scene",
			"nodes":[
				0,
				1,
				2,
				3,
				4,
				5
			]
		}
	],
	"nodes":[
		{
			"mesh":0,
			"name":"ASSY - Mother Drone - Ver 1 v1",
			"rotation":[
				0.09229599684476852,
				0.7010573744773865,
				-0.7010574340820312,
				0.09229599684476852
			],
			"scale":[
				0.009999999776482582,
				0.009999999776482582,
				0.009999999776482582
			],
			"translation":[
				-0.5899999737739563,
				-2.369999885559082,
				6.539999961853027
			]
		},
		{
			"mesh":1,
			"name":"PRT - Landing Cone",
			"rotation":[
				0.7071068286895752,
				0,
				0,
				0.7071068286895752
			],
			"scale":[
				0.009999999776482582,
				0.009999999776482582,
				0.009999999776482582
			],
			"translation":[
				0,
				0.7599999904632568,
				0
			]
		},
		{
			"mesh":2,
			"name":"91299A350_NAS Male-Female Threaded Hex Standoff",
			"rotation":[
				0,
				0,
				-0.7071068286895752,
				0.7071068286895752
			],
			"scale":[
				0.009999999776482582,
				0.009999999776482582,
				0.009999999776482582
			],
			"translation":[
				-1.0379999876022339,
				0.48500001430511475,
				-1.0499999523162842
			]
		},
		{
			"mesh":3,
			"name":"91299A350_NAS Male-Female Threaded Hex Standoff.001",
			"rotation":[
				0,
				0,
				-0.7071068286895752,
				0.7071068286895752
			],
			"scale":[
				0.009999999776482582,
				0.009999999776482582,
				0.009999999776482582
			],
			"translation":[
				1.0555000305175781,
				0.48500001430511475,
				-1.059999942779541
			]
		},
		{
			"mesh":4,
			"name":"91299A350_NAS Male-Female Threaded Hex Standoff.002",
			"rotation":[
				0,
				0,
				-0.7071068286895752,
				0.7071068286895752
			],
			"scale":[
				0.009999999776482582,
				0.009999999776482582,
				0.009999999776482582
			],
			"translation":[
				-1.027999997138977,
				0.48500001430511475,
				1.0399999618530273
			]
		},
		{
			"mesh":5,
			"name":"91299A350_NAS Male-Female Threaded Hex Standoff.003",
			"rotation":[
				0,
				0,
				-0.7071068286895752,
				0.7071068286895752
			],
			"scale":[
				0.009999999776482582,
				0.009999999776482582,
				0.009999999776482582
			],
			"translation":[
				1.065000057220459,
				0.48500001430511475,
				1.034999966621399
			]
		}
	],
	"materials":[
		{
			"doubleSided":true,
			"name":"Material.001",
			"pbrMetallicRoughness":{
				"baseColorTexture":{
					"index":0
				},
				"metallicFactor":0,
				"roughnessFactor":0.5
			}
		},
		{
			"doubleSided":true,
			"name":"Material",
			"pbrMetallicRoughness":{
				"baseColorFactor":[
					0.06112993508577347,
					0.061920054256916046,
					0.061326779425144196,
					1
				],
				"metallicFactor":0
			}
		},
		{
			"doubleSided":true,
			"name":"Material.002",
			"pbrMetallicRoughness":{
				"baseColorFactor":[
					0.13160239160060883,
					0.13160239160060883,
					0.13160239160060883,
					1
				],
				"metallicFactor":0.6972476840019226,
				"roughnessFactor":0.5
			}
		},
		{
			"doubleSided":true,
			"name":"Material.003",
			"pbrMetallicRoughness":{
				"baseColorFactor":[
					0.13160239160060883,
					0.13160239160060883,
					0.13160239160060883,
					1
				],
				"metallicFactor":0.6972476840019226,
				"roughnessFactor":0.5
			}
		},
		{
			"doubleSided":true,
			"name":"Material.004",
			"pbrMetallicRoughness":{
				"baseColorFactor":[
					0.13160239160060883,
					0.13160239160060883,
					0.13160239160060883,
					1
				],
				"metallicFactor":0.6972476840019226,
				"roughnessFactor":0.5
			}
		},
		{
			"doubleSided":true,
			"name":"Material.005",
			"pbrMetallicRoughness":{
				"baseColorFactor":[
					0.13160239160060883,
					0.13160239160060883,
					0.13160239160060883,
					1
				],
				"metallicFactor":0.6972476840019226,
				"roughnessFactor":0.5
			}
		}
	],
	"meshes":[
		{
			"name":"ASSY - Mother Drone - Ver 1 v1",
			"primitives":[
				{
					"attributes":{
						"POSITION":0,
						"NORMAL":1,
						"TEXCOORD_0":2
					},
					"indices":3,
					"material":0
				}
			]
		},
		{
			"name":"PRT - Landing Cone",
			"primitives":[
				{
					"attributes":{
						"POSITION":4,
						"NORMAL":5
					},
					"indices":6,
					"material":1
				}
			]
		},
		{
			"name":"91299A350_NAS Male-Female Threaded Hex Standoff",
			"primitives":[
				{
					"attributes":{
						"POSITION":7,
						"NORMAL":8
					},
					"indices":9,
					"material":2
				}
			]
		},
		{
			"name":"91299A350_NAS Male-Female Threaded Hex Standoff.001",
			"primitives":[
				{
					"attributes":{
						"POSITION":10,
						"NORMAL":11
					},
					"indices":9,
					"material":3
				}
			]
		},
		{
			"name":"91299A350_NAS Male-Female Threaded Hex Standoff.002",
			"primitives":[
				{
					"attributes":{
						"POSITION":12,
						"NORMAL":13
					},
					"indices":9,
					"material":4
				}
			]
		},
		{
			"name":"91299A350_NAS Male-Female Threaded Hex Standoff.003",
			"primitives":[
				{
					"attributes":{
						"POSITION":14,
						"NORMAL":15
					},
					"indices":9,
					"material":5
				}
			]
		}
	],
	"textures":[
		{
			"sampler":0,
			"source":0
		}
	],
	"images":[
		{
			"mimeType":"image/png",
			"name":"Material",
			"uri":"Material.png"
		}
	],
	"accessors":[
		{
			"bufferView":0,
			"componentType":5126,
			"count":1255358,
			"max":[
				571.54248046875,
				1108.474365234375,
				-197.54055786132812
			],
			"min":[
				-349.20208740234375,
				187.72975158691406,
				-313.186767578125
			],
			"type":"VEC3"
		},
		{
			"bufferView":1,
			"componentType":5126,
			"count":1255358,
			"type":"VEC3"
		},
		{
			"bufferView":2,
			"componentType":5126,
			"count":1255358,
			"type":"VEC2"
		},
		{
			"bufferView":3,
			"componentType":5125,
			"count":4112052,
			"type":"SCALAR"
		},
		{
			"bufferView":4,
			"componentType":5126,
			"count":2721,
			"max":[
				89.39801025390625,
				89.39801025390625,
				-8.673617379884035e-15
			],
			"min":[
				-89.39801025390625,
				-89.39801025390625,
				-63.5
			],
			"type":"VEC3"
		},
		{
			"bufferView":5,
			"componentType":5126,
			"count":2721,
			"type":"VEC3"
		},
		{
			"bufferView":6,
			"componentType":5123,
			"count":16398,
			"type":"SCALAR"
		},
		{
			"bufferView":7,
			"componentType":5126,
			"count":4778,
			"max":[
				21.431249618530273,
				3.174999952316284,
				3.6661741733551025
			],
			"min":[
				-21.431249618530273,
				-3.174999952316284,
				-3.6661741733551025
			],
			"type":"VEC3"
		},
		{
			"bufferView":8,
			"componentType":5126,
			"count":4778,
			"type":"VEC3"
		},
		{
			"bufferView":9,
			"componentType":5123,
			"count":28656,
			"type":"SCALAR"
		},
		{
			"bufferView":10,
			"componentType":5126,
			"count":4778,
			"max":[
				21.431249618530273,
				3.174999952316284,
				3.6661741733551025
			],
			"min":[
				-21.431249618530273,
				-3.174999952316284,
				-3.6661741733551025
			],
			"type":"VEC3"
		},
		{
			"bufferView":11,
			"componentType":5126,
			"count":4778,
			"type":"VEC3"
		},
		{
			"bufferView":12,
			"componentType":5126,
			"count":4778,
			"max":[
				21.431249618530273,
				3.174999952316284,
				3.6661741733551025
			],
			"min":[
				-21.431249618530273,
				-3.174999952316284,
				-3.6661741733551025
			],
			"type":"VEC3"
		},
		{
			"bufferView":13,
			"componentType":5126,
			"count":4778,
			"type":"VEC3"
		},
		{
			"bufferView":14,
			"componentType":5126,
			"count":4778,
			"max":[
				21.431249618530273,
				3.174999952316284,
				3.6661741733551025
			],
			"min":[
				-21.431249618530273,
				-3.174999952316284,
				-3.6661741733551025
			],
			"type":"VEC3"
		},
		{
			"bufferView":15,
			"componentType":5126,
			"count":4778,
			"type":"VEC3"
		}
	],
	"bufferViews":[
		{
			"buffer":0,
			"byteLength":15064296,
			"byteOffset":0,
			"target":34962
		},
		{
			"buffer":0,
			"byteLength":15064296,
			"byteOffset":15064296,
			"target":34962
		},
		{
			"buffer":0,
			"byteLength":10042864,
			"byteOffset":30128592,
			"target":34962
		},
		{
			"buffer":0,
			"byteLength":16448208,
			"byteOffset":40171456,
			"target":34963
		},
		{
			"buffer":0,
			"byteLength":32652,
			"byteOffset":56619664,
			"target":34962
		},
		{
			"buffer":0,
			"byteLength":32652,
			"byteOffset":56652316,
			"target":34962
		},
		{
			"buffer":0,
			"byteLength":32796,
			"byteOffset":56684968,
			"target":34963
		},
		{
			"buffer":0,
			"byteLength":57336,
			"byteOffset":56717764,
			"target":34962
		},
		{
			"buffer":0,
			"byteLength":57336,
			"byteOffset":56775100,
			"target":34962
		},
		{
			"buffer":0,
			"byteLength":57312,
			"byteOffset":56832436,
			"target":34963
		},
		{
			"buffer":0,
			"byteLength":57336,
			"byteOffset":56889748,
			"target":34962
		},
		{
			"buffer":0,
			"byteLength":57336,
			"byteOffset":56947084,
			"target":34962
		},
		{
			"buffer":0,
			"byteLength":57336,
			"byteOffset":57004420,
			"target":34962
		},
		{
			"buffer":0,
			"byteLength":57336,
			"byteOffset":57061756,
			"target":34962
		},
		{
			"buffer":0,
			"byteLength":57336,
			"byteOffset":57119092,
			"target":34962
		},
		{
			"buffer":0,
			"byteLength":57336,
			"byteOffset":57176428,
			"target":34962
		}
	],
	"samplers":[
		{
			"magFilter":9729,
			"minFilter":9987
		}
	],
	"buffers":[
		{
			"byteLength":57233764,
			"uri":"Drone.bin"
		}
	]
}
