{
	"asset":{
		"generator":"Khronos glTF Blender I/O v4.1.63",
		"version":"2.0"
	},
	"scene":0,
	"scenes":[
		{
			"name":"Scene",
			"nodes":[
				0
			]
		}
	],
	"nodes":[
		{
			"mesh":0,
			"name":"Doghouse Assy v6",
			"scale":[
				0.009999999776482582,
				0.009999999776482582,
				0.009999999776482582
			],
			"translation":[
				-7.329999923706055,
				-1.4399999380111694,
				2
			]
		}
	],
	"materials":[
		{
			"doubleSided":true,
			"name":"Material.001",
			"pbrMetallicRoughness":{
				"baseColorTexture":{
					"index":0
				},
				"metallicFactor":0,
				"roughnessFactor":0.5
			}
		}
	],
	"meshes":[
		{
			"name":"Doghouse Assy v6",
			"primitives":[
				{
					"attributes":{
						"POSITION":0,
						"NORMAL":1,
						"TEXCOORD_0":2
					},
					"indices":3,
					"material":0
				}
			]
		}
	],
	"textures":[
		{
			"sampler":0,
			"source":0
		}
	],
	"images":[
		{
			"mimeType":"image/png",
			"name":"Material",
			"uri":"Material.png"
		}
	],
	"accessors":[
		{
			"bufferView":0,
			"componentType":5126,
			"count":1056118,
			"max":[
				1515.97998046875,
				1597.8089599609375,
				323.8500061035156
			],
			"min":[
				-608.2645263671875,
				-126.63683319091797,
				-733.4249877929688
			],
			"type":"VEC3"
		},
		{
			"bufferView":1,
			"componentType":5126,
			"count":1056118,
			"type":"VEC3"
		},
		{
			"bufferView":2,
			"componentType":5126,
			"count":1056118,
			"type":"VEC2"
		},
		{
			"bufferView":3,
			"componentType":5125,
			"count":4651596,
			"type":"SCALAR"
		}
	],
	"bufferViews":[
		{
			"buffer":0,
			"byteLength":12673416,
			"byteOffset":0,
			"target":34962
		},
		{
			"buffer":0,
			"byteLength":12673416,
			"byteOffset":12673416,
			"target":34962
		},
		{
			"buffer":0,
			"byteLength":8448944,
			"byteOffset":25346832,
			"target":34962
		},
		{
			"buffer":0,
			"byteLength":18606384,
			"byteOffset":33795776,
			"target":34963
		}
	],
	"samplers":[
		{
			"magFilter":9729,
			"minFilter":9987
		}
	],
	"buffers":[
		{
			"byteLength":52402160,
			"uri":"doghouse.bin"
		}
	]
}
