{
  "accessors": [
    {
      "bufferView": 3,
      "componentType": 5126,
      "count": 4680,
      "max": [
        0.6158754229545593,
        3.2855615615844727,
        0.5529999136924744
      ],
      "min": [
        -0.6191451549530029,
        -0.014314055442810059,
        -0.47277846932411194
      ],
      "type": "VEC3"
    },
    {
      "bufferView": 3,
      "byteOffset": 56160,
      "componentType": 5126,
      "count": 4680,
      "max": [
        0.9993552565574646,
        0.9994806051254272,
        0.9999539852142334
      ],
      "min": [
        -0.9993552565574646,
        -0.9998000860214233,
        -0.9899511337280273
      ],
      "type": "VEC3"
    },
    {
      "bufferView": 4,
      "componentType": 5126,
      "count": 4680,
      "max": [
        0.9999920725822449,
        0.9995176196098328,
        0.9990130662918091,
        1.0
      ],
      "min": [
        -0.9998254179954529,
        -0.9999539852142334,
        -0.9998000264167786,
        1.0
      ],
      "type": "VEC4"
    },
    {
      "bufferView": 2,
      "componentType": 5126,
      "count": 4680,
      "max": [
        1.0000015497207642,
        17.576740264892578
      ],
      "min": [
        -3.1086244689504383e-15,
        0.00015312399773392826
      ],
      "type": "VEC2"
    },
    {
      "bufferView": 1,
      "componentType": 5125,
      "count": 12144,
      "type": "SCALAR"
    },
    {
      "bufferView": 3,
      "byteOffset": 112320,
      "componentType": 5126,
      "count": 7904,
      "max": [
        0.7873183488845825,
        3.323930263519287,
        0.5417618751525879
      ],
      "min": [
        -0.7909417152404785,
        -0.011121034622192383,
        -2.0649068355560303
      ],
      "type": "VEC3"
    },
    {
      "bufferView": 3,
      "byteOffset": 207168,
      "componentType": 5126,
      "count": 7904,
      "max": [
        0.9999288320541382,
        0.9999908208847046,
        0.999997079372406
      ],
      "min": [
        -0.9999288320541382,
        -0.9999989867210388,
        -0.9999880790710449
      ],
      "type": "VEC3"
    },
    {
      "bufferView": 4,
      "byteOffset": 74880,
      "componentType": 5126,
      "count": 7904,
      "max": [
        0.9999997019767761,
        0.999776303768158,
        0.9999903440475464,
        1.0
      ],
      "min": [
        -1.0,
        -0.9997996687889099,
        -0.9998810887336731,
        -1.0
      ],
      "type": "VEC4"
    },
    {
      "bufferView": 2,
      "byteOffset": 37440,
      "componentType": 5126,
      "count": 7904,
      "max": [
        1.0,
        1.0
      ],
      "min": [
        -1.2490009027033011e-14,
        -4.163336342344337e-16
      ],
      "type": "VEC2"
    },
    {
      "bufferView": 1,
      "byteOffset": 48576,
      "componentType": 5125,
      "count": 29820,
      "type": "SCALAR"
    },
    {
      "bufferView": 5,
      "componentType": 5126,
      "count": 26,
      "max": [
        1.0,
        0.9998965859413147,
        0.9992620348930359,
        0.0,
        0.9979256391525269,
        1.0,
        0.9996823072433472,
        0.0,
        1.0000001192092896,
        0.9942070841789246,
        1.0,
        0.0,
        2.3917670249938965,
        1.0880942344665527,
        3.0831634998321533,
        1.0
      ],
      "min": [
        -0.9431589245796204,
        -0.9992497563362122,
        -0.9467652440071106,
        0.0,
        -0.9985054731369019,
        -0.9598791003227234,
        -0.9942072033882141,
        0.0,
        -0.9998550415039063,
        -0.9996824264526367,
        -0.9633429646492004,
        0.0,
        -2.3531739711761475,
        -2.700809955596924,
        -2.26882004737854,
        1.0
      ],
      "type": "MAT4"
    },
    {
      "bufferView": 0,
      "componentType": 5123,
      "count": 4680,
      "type": "VEC4"
    },
    {
      "bufferView": 4,
      "byteOffset": 201344,
      "componentType": 5126,
      "count": 4680,
      "max": [
        1.0,
        0.48537150025367737,
        0.18314014375209808,
        0.0
      ],
      "min": [
        0.514628529548645,
        0.0,
        0.0,
        0.0
      ],
      "type": "VEC4"
    },
    {
      "bufferView": 0,
      "byteOffset": 37440,
      "componentType": 5123,
      "count": 7904,
      "type": "VEC4"
    },
    {
      "bufferView": 4,
      "byteOffset": 276224,
      "componentType": 5126,
      "count": 7904,
      "max": [
        1.0,
        0.49979040026664734,
        0.28065025806427,
        0.20959718525409698
      ],
      "min": [
        0.27876168489456177,
        0.0,
        0.0,
        0.0
      ],
      "type": "VEC4"
    }
  ],
  "asset": {
    "extras": {
      "author": "quentin.cdt (https://sketchfab.com/quentin.cdt)",
      "license": "CC-BY-4.0 (http://creativecommons.org/licenses/by/4.0/)",
      "source": "https://sketchfab.com/3d-models/marmot-rig-bf70e9fdea114943b0dc5cff336bf3e0",
      "title": "Marmot rig"
    },
    "generator": "Sketchfab-13.81.0",
    "version": "2.0"
  },
  "bufferViews": [
    {
      "buffer": 0,
      "byteLength": 100672,
      "byteStride": 8,
      "name": "shortBufferViews",
      "target": 34962
    },
    {
      "buffer": 0,
      "byteLength": 167856,
      "byteOffset": 100672,
      "name": "floatBufferViews",
      "target": 34963
    },
    {
      "buffer": 0,
      "byteLength": 100672,
      "byteOffset": 268528,
      "byteStride": 8,
      "name": "floatBufferViews",
      "target": 34962
    },
    {
      "buffer": 0,
      "byteLength": 302016,
      "byteOffset": 369200,
      "byteStride": 12,
      "name": "floatBufferViews",
      "target": 34962
    },
    {
      "buffer": 0,
      "byteLength": 402688,
      "byteOffset": 671216,
      "byteStride": 16,
      "name": "floatBufferViews",
      "target": 34962
    },
    {
      "buffer": 0,
      "byteLength": 1664,
      "byteOffset": 1073904,
      "name": "floatBufferViews"
    }
  ],
  "buffers": [
    {
      "byteLength": 1075568,
      "uri": "scene.bin"
    }
  ],
  "images": [
    {
      "uri": "textures/auto_baseColor.png"
    },
    {
      "uri": "textures/auto_normal.png"
    },
    {
      "uri": "textures/auto9_baseColor.png"
    },
    {
      "uri": "textures/auto9_normal.png"
    }
  ],
  "materials": [
    {
      "doubleSided": true,
      "name": "auto",
      "normalTexture": {
        "index": 1,
        "scale": 0.7
      },
      "pbrMetallicRoughness": {
        "baseColorTexture": {
          "index": 0
        },
        "metallicFactor": 0.0,
        "roughnessFactor": 0.5
      }
    },
    {
      "doubleSided": true,
      "name": "auto9",
      "normalTexture": {
        "index": 3,
        "scale": 0.7
      },
      "pbrMetallicRoughness": {
        "baseColorTexture": {
          "index": 2
        },
        "metallicFactor": 0.0,
        "roughnessFactor": 0.5
      }
    }
  ],
  "meshes": [
    {
      "name": "Object_0",
      "primitives": [
        {
          "attributes": {
            "JOINTS_0": 11,
            "NORMAL": 1,
            "POSITION": 0,
            "TANGENT": 2,
            "TEXCOORD_0": 3,
            "TEXCOORD_1": 3,
            "WEIGHTS_0": 12
          },
          "indices": 4,
          "material": 0,
          "mode": 4
        }
      ]
    },
    {
      "name": "Object_1",
      "primitives": [
        {
          "attributes": {
            "JOINTS_0": 13,
            "NORMAL": 6,
            "POSITION": 5,
            "TANGENT": 7,
            "TEXCOORD_0": 8,
            "TEXCOORD_1": 8,
            "WEIGHTS_0": 14
          },
          "indices": 9,
          "material": 1,
          "mode": 4
        }
      ]
    }
  ],
  "nodes": [
    {
      "children": [
        1
      ],
      "matrix": [
        1.0,
        0.0,
        0.0,
        0.0,
        0.0,
        2.220446049250313e-16,
        -1.0,
        0.0,
        0.0,
        1.0,
        2.220446049250313e-16,
        0.0,
        0.0,
        0.0,
        0.0,
        1.0
      ],
      "name": "Sketchfab_model"
    },
    {
      "children": [
        2
      ],
      "name": "root"
    },
    {
      "children": [
        3
      ],
      "matrix": [
        1.0,
        0.0,
        0.0,
        0.0,
        0.0,
        2.220446049250313e-16,
        1.0,
        0.0,
        0.0,
        -1.0,
        2.220446049250313e-16,
        0.0,
        0.0,
        0.0,
        0.0,
        1.0
      ],
      "name": "GLTF_SceneRootNode"
    },
    {
      "children": [
        4
      ],
      "name": "Armature_26"
    },
    {
      "children": [
        5,
        7,
        8,
        6
      ],
      "name": "GLTF_created_0"
    },
    {
      "children": [
        9,
        22,
        26,
        30
      ],
      "name": "GLTF_created_0_rootJoint"
    },
    {
      "name": "skpDFEC_25"
    },
    {
      "mesh": 0,
      "name": "Object_7",
      "skin": 0
    },
    {
      "mesh": 1,
      "name": "Object_8",
      "skin": 0
    },
    {
      "children": [
        10
      ],
      "name": "Bone_12",
      "translation": [
        -0.031246662139892578,
        1.1717503070831299,
        -0.33329787850379944
      ]
    },
    {
      "children": [
        11,
        14,
        18
      ],
      "name": "Bone.001_11",
      "rotation": [
        0.026756957173347473,
        0.0,
        0.0,
        0.999642014503479
      ],
      "scale": [
        1.0,
        1.0000001192092896,
        1.0000001192092896
      ],
      "translation": [
        3.725290298461914e-09,
        0.6198320388793945,
        -2.97596489673424e-08
      ]
    },
    {
      "children": [
        12
      ],
      "name": "Bone.002_2",
      "rotation": [
        0.06365998834371567,
        1.1896752027951152e-07,
        7.5888637596222e-09,
        0.9979716539382935
      ],
      "translation": [
        0.0,
        0.5841076970100403,
        -1.4901161193847656e-08
      ]
    },
    {
      "children": [
        13
      ],
      "name": "Bone.003_1",
      "rotation": [
        0.010013718158006668,
        -2.908930352998017e-14,
        2.3874571208892803e-09,
        0.9999498724937439
      ],
      "scale": [
        1.0,
        0.9999999403953552,
        1.0
      ],
      "translation": [
        -2.3652333425161487e-09,
        0.4341241419315338,
        -9.684480062333023e-08
      ]
    },
    {
      "name": "Bone.004_0",
      "rotation": [
        0.5900139808654785,
        3.8499118204526894e-07,
        4.220081564199063e-07,
        0.8073930144309998
      ],
      "scale": [
        1.0,
        1.0000001192092896,
        1.0000001192092896
      ],
      "translation": [
        1.254239045955785e-09,
        0.28699547052383423,
        -8.054732347773097e-08
      ]
    },
    {
      "children": [
        15
      ],
      "name": "Bone.017_6",
      "rotation": [
        -0.0005403909599408507,
        -5.243175493774288e-08,
        -0.7020089626312256,
        0.7121679186820984
      ],
      "scale": [
        0.9999998807907104,
        0.9999999403953552,
        1.0
      ],
      "translation": [
        -5.842579309245366e-09,
        0.5841076970100403,
        -4.469755410241305e-08
      ]
    },
    {
      "children": [
        16
      ],
      "name": "Bone.018_5",
      "rotation": [
        0.30305853486061096,
        -0.020960040390491486,
        -0.060523029416799545,
        0.9508172273635864
      ],
      "scale": [
        1.0,
        0.9999999403953552,
        1.0
      ],
      "translation": [
        3.861147774841811e-07,
        0.41895630955696106,
        -5.751933151998401e-09
      ]
    },
    {
      "children": [
        17
      ],
      "name": "Bone.019_4",
      "rotation": [
        0.3887527287006378,
        -0.054658640176057816,
        -0.09074660390615463,
        0.9152315855026245
      ],
      "translation": [
        -2.520210387046973e-07,
        0.2403954565525055,
        -8.092450798358186e-08
      ]
    },
    {
      "name": "Bone.020_3",
      "rotation": [
        0.43630626797676086,
        0.020828677341341972,
        0.5498741865158081,
        0.7119279503822327
      ],
      "scale": [
        1.0000001192092896,
        1.0,
        1.0000001192092896
      ],
      "translation": [
        1.0606839850879624e-07,
        0.40356263518333435,
        -1.5874427106155053e-07
      ]
    },
    {
      "children": [
        19
      ],
      "name": "Bone.021_10",
      "rotation": [
        -0.0014375256141647696,
        1.9950430640847117e-08,
        0.6932967901229858,
        0.720650851726532
      ],
      "scale": [
        1.0,
        0.9999999403953552,
        1.0
      ],
      "translation": [
        1.6693222804065044e-08,
        0.5841076970100403,
        1.4931913483451353e-08
      ]
    },
    {
      "children": [
        20
      ],
      "name": "Bone.023_9",
      "rotation": [
        0.27464887499809265,
        0.5623469352722168,
        0.36883512139320374,
        0.6872369647026062
      ],
      "scale": [
        0.9999997615814209,
        0.9999997019767761,
        0.9999998807907104
      ],
      "translation": [
        2.2306371860736363e-08,
        0.3890672028064728,
        1.579074933033553e-07
      ]
    },
    {
      "children": [
        21
      ],
      "name": "Bone.024_8",
      "rotation": [
        0.028686251491308212,
        0.015020634979009628,
        0.1430121213197708,
        0.9891911149024963
      ],
      "scale": [
        1.0000001192092896,
        0.9999999403953552,
        1.0000001192092896
      ],
      "translation": [
        5.968602323491723e-08,
        0.1813471019268036,
        2.797162323986413e-07
      ]
    },
    {
      "name": "Bone.025_7",
      "rotation": [
        0.6808984875679016,
        -0.05603595823049545,
        0.29835808277130127,
        0.6664981245994568
      ],
      "scale": [
        1.0000001192092896,
        1.0000001192092896,
        1.0000001192092896
      ],
      "translation": [
        -5.1489077890209956e-08,
        0.4079727828502655,
        9.207751361373084e-08
      ]
    },
    {
      "children": [
        23
      ],
      "name": "Bone.005_16",
      "rotation": [
        -0.9899189472198486,
        0.0,
        0.0,
        0.14163491129875183
      ],
      "translation": [
        -0.031246662139892578,
        1.1717503070831299,
        -0.33329787850379944
      ]
    },
    {
      "children": [
        24
      ],
      "name": "Bone.006_15",
      "rotation": [
        0.0934060588479042,
        0.0,
        0.0,
        0.9956281185150146
      ],
      "scale": [
        1.0,
        1.0,
        0.9999999403953552
      ],
      "translation": [
        0.0,
        0.48286527395248413,
        -1.4901161193847656e-08
      ]
    },
    {
      "children": [
        25
      ],
      "name": "Bone.007_14",
      "rotation": [
        0.4563247561454773,
        0.0,
        0.0,
        0.8898133039474487
      ],
      "scale": [
        1.0,
        0.9999998807907104,
        0.9999999403953552
      ],
      "translation": [
        -1.862645149230957e-09,
        0.6078841090202332,
        -8.565709919139408e-08
      ]
    },
    {
      "name": "Bone.008_13",
      "rotation": [
        0.0632379949092865,
        0.0,
        0.0,
        0.9979984760284424
      ],
      "scale": [
        1.0,
        0.9999998211860657,
        0.9999998211860657
      ],
      "translation": [
        -1.862645149230957e-09,
        0.44780829548835754,
        -7.450580596923828e-09
      ]
    },
    {
      "children": [
        27
      ],
      "name": "Bone.009_20",
      "rotation": [
        -0.5443226099014282,
        -0.45134568214416504,
        -0.5443226099014282,
        0.45134568214416504
      ],
      "scale": [
        0.9999999403953552,
        1.0,
        1.0000001192092896
      ],
      "translation": [
        -0.031246647238731384,
        1.1717503070831299,
        -0.33329787850379944
      ]
    },
    {
      "children": [
        28
      ],
      "name": "Bone.010_19",
      "rotation": [
        -0.5481517910957336,
        -0.1278187483549118,
        -0.1877017617225647,
        0.8049597144126892
      ],
      "scale": [
        1.0000001192092896,
        1.0000001192092896,
        1.0
      ],
      "translation": [
        -3.902849243786477e-08,
        0.5078593492507935,
        -3.085460775764659e-09
      ]
    },
    {
      "children": [
        29
      ],
      "name": "Bone.011_18",
      "rotation": [
        -0.1120416447520256,
        0.0005755392485298216,
        0.3809475600719452,
        0.9177828431129456
      ],
      "scale": [
        0.9999999403953552,
        0.9999997615814209,
        0.9999999403953552
      ],
      "translation": [
        -7.401476409540919e-08,
        0.4020046293735504,
        4.086087912469338e-09
      ]
    },
    {
      "name": "Bone.012_17",
      "rotation": [
        -0.0036343811079859734,
        0.04603145644068718,
        -0.7193087339401245,
        0.6931543350219727
      ],
      "scale": [
        0.9999999403953552,
        1.0,
        0.9999999403953552
      ],
      "translation": [
        -6.53380425319483e-08,
        0.6641529202461243,
        8.163655529358493e-09
      ]
    },
    {
      "children": [
        31
      ],
      "name": "Bone.013_24",
      "rotation": [
        -0.552676796913147,
        0.4410764276981354,
        0.5601074695587158,
        0.43160128593444824
      ],
      "scale": [
        1.0,
        1.0,
        0.9999999403953552
      ],
      "translation": [
        -0.031246691942214966,
        1.1717503070831299,
        -0.3332979083061218
      ]
    },
    {
      "children": [
        32
      ],
      "name": "Bone.014_23",
      "rotation": [
        -0.5552623271942139,
        9.537276746129919e-09,
        0.2853076756000519,
        0.7812063097953796
      ],
      "scale": [
        1.0,
        0.9999998807907104,
        1.0
      ],
      "translation": [
        5.398390001687403e-08,
        0.49162131547927856,
        -2.327445258742955e-08
      ]
    },
    {
      "children": [
        33
      ],
      "name": "Bone.015_22",
      "rotation": [
        -0.1421658843755722,
        -1.8147741087659597e-08,
        -0.3556573987007141,
        0.9237406253814697
      ],
      "scale": [
        0.9999999403953552,
        0.9999999403953552,
        1.0
      ],
      "translation": [
        2.661069231635338e-08,
        0.3725167512893677,
        -4.492188665494723e-08
      ]
    },
    {
      "name": "Bone.016_21",
      "rotation": [
        0.234954372048378,
        -0.023830385878682137,
        0.6626309156417847,
        0.7107382416725159
      ],
      "scale": [
        0.9999998807907104,
        0.9999998807907104,
        1.0000001192092896
      ],
      "translation": [
        5.8143282188893863e-08,
        0.654822587966919,
        -2.3425382522646032e-08
      ]
    }
  ],
  "samplers": [
    {
      "magFilter": 9729,
      "minFilter": 9987,
      "wrapS": 10497,
      "wrapT": 10497
    }
  ],
  "scene": 0,
  "scenes": [
    {
      "name": "Sketchfab_Scene",
      "nodes": [
        0
      ]
    }
  ],
  "skins": [
    {
      "inverseBindMatrices": 10,
      "joints": [
        5,
        9,
        10,
        11,
        12,
        13,
        14,
        15,
        16,
        17,
        18,
        19,
        20,
        21,
        22,
        23,
        24,
        25,
        26,
        27,
        28,
        29,
        30,
        31,
        32,
        33
      ],
      "skeleton": 5
    }
  ],
  "textures": [
    {
      "sampler": 0,
      "source": 0
    },
    {
      "sampler": 0,
      "source": 1
    },
    {
      "sampler": 0,
      "source": 2
    },
    {
      "sampler": 0,
      "source": 3
    }
  ]
}
