{
	"asset":{
		"generator":"Khronos glTF Blender I/O v4.1.63",
		"version":"2.0"
	},
	"scene":0,
	"scenes":[
		{
			"name":"Scene",
			"nodes":[
				0
			]
		}
	],
	"nodes":[
		{
			"mesh":0,
			"name":"PRT - 16x5.4 Propeller",
			"rotation":[
				0.7071068286895752,
				0,
				0,
				0.7071068286895752
			],
			"scale":[
				0.10000000149011612,
				0.10000000149011612,
				0.10000000149011612
			]
		}
	],
	"meshes":[
		{
			"name":"PRT - 16x5.4 Propeller",
			"primitives":[
				{
					"attributes":{
						"POSITION":0,
						"NORMAL":1
					},
					"indices":2
				}
			]
		}
	],
	"accessors":[
		{
			"bufferView":0,
			"componentType":5126,
			"count":48323,
			"max":[
				26.845165252685547,
				203.1999969482422,
				11.206984519958496
			],
			"min":[
				-26.845165252685547,
				-203.1999969482422,
				-1.9998582601547241
			],
			"type":"VEC3"
		},
		{
			"bufferView":1,
			"componentType":5126,
			"count":48323,
			"type":"VEC3"
		},
		{
			"bufferView":2,
			"componentType":5123,
			"count":48756,
			"type":"SCALAR"
		}
	],
	"bufferViews":[
		{
			"buffer":0,
			"byteLength":579876,
			"byteOffset":0,
			"target":34962
		},
		{
			"buffer":0,
			"byteLength":579876,
			"byteOffset":579876,
			"target":34962
		},
		{
			"buffer":0,
			"byteLength":97512,
			"byteOffset":1159752,
			"target":34963
		}
	],
	"buffers":[
		{
			"byteLength":1257264,
			"uri":"propeller.bin"
		}
	]
}
