{
	"asset":{
		"generator":"Khronos glTF Blender I/O v4.1.63",
		"version":"2.0"
	},
	"scene":0,
	"scenes":[
		{
			"name":"Scene",
			"nodes":[
				0
			]
		}
	],
	"nodes":[
		{
			"mesh":0,
			"name":"Dog",
			"rotation":[
				0.7071068286895752,
				0,
				0,
				0.7071068286895752
			],
			"scale":[
				0.009999999776482582,
				0.009999999776482582,
				0.009999999776482582
			],
			"translation":[
				0,
				0.005517482757568359,
				0
			]
		}
	],
	"meshes":[
		{
			"name":"Dog",
			"primitives":[
				{
					"attributes":{
						"POSITION":0,
						"NORMAL":1
					},
					"indices":2
				}
			]
		}
	],
	"accessors":[
		{
			"bufferView":0,
			"componentType":5126,
			"count":765938,
			"max":[
				221.7431640625,
				442.1488952636719,
				544.9823608398438
			],
			"min":[
				-221.79214477539062,
				-529.27099609375,
				-93.75
			],
			"type":"VEC3"
		},
		{
			"bufferView":1,
			"componentType":5126,
			"count":765938,
			"type":"VEC3"
		},
		{
			"bufferView":2,
			"componentType":5125,
			"count":4594110,
			"type":"SCALAR"
		}
	],
	"bufferViews":[
		{
			"buffer":0,
			"byteLength":9191256,
			"byteOffset":0,
			"target":34962
		},
		{
			"buffer":0,
			"byteLength":9191256,
			"byteOffset":9191256,
			"target":34962
		},
		{
			"buffer":0,
			"byteLength":18376440,
			"byteOffset":18382512,
			"target":34963
		}
	],
	"buffers":[
		{
			"byteLength":36758952,
			"uri":"dog.bin"
		}
	]
}
